<?xml version="1.0" encoding="utf-8"?>
<!-- Generator: Adobe Illustrator 23.0.3, SVG Export Plug-In . SVG Version: 6.00 Build 0)  -->
<svg version="1.1" id="Layer_1" xmlns="http://www.w3.org/2000/svg" xmlns:xlink="http://www.w3.org/1999/xlink" x="0px" y="0px"
	 viewBox="0 0 201 201" style="enable-background:new 0 0 201 201;" xml:space="preserve">
<style type="text/css">
	.st0{fill:#FFFFFF;}
	.st1{fill:#BBE2DA;}
	.st2{fill:#ECD9D9;}
	.st3{fill:#FCDDD1;}
	.st4{fill:#F9E1C1;}
	.st5{fill:#E7EDD7;}
	.st6{fill:#9EC7D0;}
	.st7{fill:#90D1C2;}
	.st8{fill:#F2B3BC;}
	.st9{fill:#FBC9B4;}
	.st10{fill:#F1DDA6;}
	.st11{fill:#978BA4;}
	.st12{fill:#56C3C1;}
	.st13{fill:#81C88E;}
	.st14{fill:#F49398;}
	.st15{fill:#F9BD89;}
	.st16{fill:#835677;}
	.st17{fill:#51797C;}
	.st18{fill:#489789;}
	.st19{fill:#6E985F;}
	.st20{fill:#F37F64;}
	.st21{fill:none;}
</style>
<g>
	<g>
		<path class="st0" d="M165.03,122.06c4.51-13.88,2.71-29.41,0-42.77c-5.67-12.19-12.77-25.06-24.42-33.53
			c-11.81-8.58-26.8-11.64-40.34-13.19C86.92,34.2,72.41,36.5,60.76,44.96c-11.81,8.58-19.27,22.38-24.93,34.77
			c-2.58,13.2-4.45,28.64,0,42.33c4.51,13.88,14.89,24.31,24.93,33.53c11.75,6.53,25.06,12.86,39.46,12.86
			c14.6,0,28.53-6.42,40.39-13.12C150.46,146.16,160.58,135.76,165.03,122.06z"/>
		<g>
			<path class="st1" d="M100.45,165.85c-14.4,0-27.93-3.72-39.69-10.26c0.45,9.21,18.31,20.13,39.99,20.13s38.53-13.42,39.86-20.4
				C128.75,162.02,115.04,165.85,100.45,165.85z"/>
			<path class="st2" d="M60.76,155.59c-10.04-9.21-17.91-21.06-22.42-34.95c-4.45-13.7-5.09-27.72-2.51-40.91
				c-7.88,1.89-12.06,28.68-6.79,44.25S52.92,158.99,60.76,155.59z"/>
			<path class="st3" d="M62.14,47.61c11.65-8.47,24.79-13.41,38.14-15.03c-6.49-5.73-32.78-1.49-44.19,7.22S31.23,71.57,35.83,79.73
				C41.49,67.34,50.33,56.19,62.14,47.61z"/>
			<path class="st4" d="M100.27,32.58c13.54,1.55,26.87,6.51,38.68,15.09c11.65,8.47,20.41,19.43,26.08,31.63
				c4.9-8.31-6.03-30.23-20.52-39.79C130.02,29.95,103.97,27.46,100.27,32.58z"/>
			<path class="st5" d="M165.03,79.3c2.71,13.35,2.11,27.57-2.4,41.45c-4.45,13.7-12.17,25.42-22.02,34.58
				c11.19,1.08,26.73-13.8,31.5-31.81S172.01,80.26,165.03,79.3z"/>
		</g>
	</g>
	<path class="st6" d="M29.04,123.98c-4.78,6.03,1.26,31.39,21.5,45.76s45.78,11.23,50.21,5.98c-14.92-2.87-28.8-9.86-39.99-20.13
		C47.48,148.21,36.47,137.24,29.04,123.98z"/>
	<path class="st7" d="M172.11,123.51c-7.34,13.3-18.28,24.35-31.5,31.81c-11.13,10.35-24.96,17.43-39.86,20.4
		c5.35,6.51,34.42,3.21,50.16-6.31C166.65,159.89,175.17,131.77,172.11,123.51z"/>
	<path class="st8" d="M35.83,79.73c2.92-14.91,9.95-28.77,20.26-39.93C45.5,35.88,25.44,53.61,19.21,74.39s-1.23,44.55,9.83,49.6
		C27.16,108.91,29.52,93.54,35.83,79.73z"/>
	<path class="st9" d="M100.27,32.58c15.08-1.83,30.44,0.57,44.24,6.93c4.53-8.57-24.21-24.38-44.29-24.38S56.43,28.98,56.09,39.8
		C69.85,33.35,85.19,30.85,100.27,32.58z"/>
	<path class="st10" d="M172.11,123.51c9.56-1.86,16.67-25.6,9.5-49.66s-29.36-36.82-37.1-34.35c10.38,11.09,17.51,24.91,20.52,39.79
		C171.44,93.08,173.89,108.42,172.11,123.51z"/>
	<path class="st11" d="M50.54,169.74c-2.3-2.46-4.47-5.08-6.5-7.88c-8.41-11.58-13.34-24.62-15-37.88
		c-6.62-11.81-10.39-25.43-10.39-39.94c0-3.27,0.19-6.49,0.57-9.66c-7.67,2.13-16.93,32.86-8.52,55.63S43.43,171.02,50.54,169.74z"
		/>
	<path class="st12" d="M150.91,169.41c-3.05,1.43-6.22,2.68-9.5,3.75c-13.61,4.42-27.54,5.08-40.66,2.56
		c-13.28,2.65-27.4,2.03-41.19-2.45c-3.11-1.01-6.12-2.19-9.02-3.52c3.6,11.07,21.88,25.3,50.27,25.3S145.66,181.09,150.91,169.41z"
		/>
	<path class="st13" d="M181.62,73.85c0.42,3.34,0.63,6.74,0.63,10.19c0,14.31-3.68,27.76-10.13,39.46
		c-1.59,13.45-6.54,26.69-15.06,38.42c-1.92,2.65-3.97,5.14-6.14,7.48c13.15,0.86,32.52-13.64,39.6-40S188.75,77.09,181.62,73.85z"
		/>
	<path class="st14" d="M19.21,74.39c1.63-2.95,3.45-5.82,5.48-8.62c8.41-11.58,19.29-20.3,31.39-25.97
		c9.19-9.95,20.98-17.75,34.77-22.23c3.11-1.01,6.24-1.82,9.36-2.45C89.12,9.58,62,12.87,44.68,24.21S16.03,63.68,19.21,74.39z"/>
	<path class="st15" d="M100.22,15.12c3.3,0.64,6.61,1.48,9.89,2.55c13.61,4.42,25.27,12.07,34.4,21.83
		c12.3,5.66,23.36,14.47,31.88,26.2c1.92,2.65,3.66,5.37,5.22,8.15c5-9.54-10.18-38.23-25.8-50.02S111.86,9.87,100.22,15.12z"/>
	<path class="st16" d="M19.21,74.39c2.32-19.73,11.67-37.31,25.46-50.18C27.43,33.92,13.64,49.88,7.04,70.19
		c-6.66,20.5-4.79,41.72,3.65,59.82C6.96,111.51,9.61,91.77,19.21,74.39z"/>
	<path class="st17" d="M50.54,169.74c-18.05-8.31-31.88-22.62-39.85-39.72c3.91,19.41,14.83,37.46,32.1,50.01
		c17.44,12.67,38.2,17.45,58.02,15.02C82.06,192.87,64.11,184.24,50.54,169.74z"/>
	<path class="st18" d="M150.91,169.41c-13.48,14.6-31.37,23.33-50.1,25.63c19.66,2.28,40.2-2.53,57.48-15.08
		c17.44-12.67,28.4-30.94,32.21-50.54C182.64,146.58,168.9,160.99,150.91,169.41z"/>
	<path class="st19" d="M181.62,73.85c9.72,17.33,12.49,37.04,8.89,55.56c8.24-18,10.02-39.02,3.42-59.33
		c-6.66-20.5-20.65-36.57-38.12-46.25C169.71,36.62,179.17,54.15,181.62,73.85z"/>
	<path class="st20" d="M100.22,15.12c19.48-3.89,39.09-0.44,55.59,8.71c-14.57-13.4-34.01-21.59-55.37-21.59
		c-21.55,0-41.16,8.34-55.77,21.96C61.13,14.94,80.72,11.36,100.22,15.12z"/>
	<circle class="st21" cx="100.5" cy="100.5" r="100"/>
</g>
</svg>
