<svg width="197" height="195" viewBox="0 0 197 195" fill="none" xmlns="http://www.w3.org/2000/svg">
<g clip-path="url(#clip0)">
<g filter="url(#filter0_d)">
<path d="M153.1 109.9C156.9 98.2 155.4 85 153.1 73.7C148.3 63.4 142.3 52.5 132.5 45.4C122.5 38.1 109.8 35.6 98.4 34.3C87.1 35.7 74.9 37.6 65 44.7C55 52 48.7 63.7 43.9 74.1C41.7 85.3 40.1 98.3 43.9 109.9C47.7 121.6 56.5 130.5 65 138.2C74.9 143.7 86.2 149.1 98.4 149.1C110.7 149.1 122.5 143.7 132.5 138C140.8 130.3 149.4 121.5 153.1 109.9Z" fill="white"/>
<path d="M98.6 146.9C86.4 146.9 75 143.8 65.1 138.2C65.5 146 80.6 155.2 98.9 155.2C117.2 155.2 131.5 143.9 132.6 138C122.5 143.7 110.9 146.9 98.6 146.9Z" fill="#BBE2DA"/>
<path d="M65 138.3C56.5 130.5 49.9 120.5 46 108.8C42.2 97.2 41.7 85.4 43.9 74.2C37.2 75.8 33.7 98.4 38.2 111.6C42.7 124.8 58.4 141.1 65 138.3Z" fill="#ECD9D9"/>
<path d="M66.2 47C76 39.8 87.2 35.7 98.4 34.3C92.9 29.5 70.7 33 61 40.4C51.3 47.8 40 67.2 43.9 74.1C48.7 63.7 56.2 54.2 66.2 47Z" fill="#FCDDD1"/>
<path d="M98.4 34.3C109.8 35.6 121.1 39.8 131.1 47.1C140.9 54.3 148.4 63.5 153.1 73.8C157.2 66.8 148 48.2 135.8 40.2C123.6 32.2 101.5 30 98.4 34.3Z" fill="#F9E1C1"/>
<path d="M153.1 73.8C155.4 85.1 154.9 97.1 151.1 108.8C147.3 120.4 140.8 130.3 132.5 138C142 138.9 155.1 126.3 159.1 111.1C163.1 95.9 159 74.6 153.1 73.8Z" fill="#E7EDD7"/>
<path d="M38.2 111.6C34.2 116.7 39.3 138.1 56.4 150.3C73.5 162.5 95.1 159.8 98.8 155.4C86.2 153 74.5 147.1 65 138.4C53.8 132 44.5 122.8 38.2 111.6Z" fill="#9EC7D0"/>
<path d="M159.1 111.2C152.9 122.4 143.6 131.8 132.5 138.1C123.1 146.8 111.4 152.8 98.8 155.3C103.3 160.8 127.9 158 141.2 150C154.5 141.9 161.7 118.1 159.1 111.2Z" fill="#90D1C2"/>
<path d="M43.9 74.1C46.4 61.5 52.3 49.8 61 40.3C52 37 35.1 52 29.8 69.5C24.5 87 28.8 107.2 38.1 111.4C36.6 98.8 38.6 85.8 43.9 74.1Z" fill="#F2B3BC"/>
<path d="M98.4 34.3C111.2 32.8 124.1 34.8 135.8 40.2C139.6 33 115.3 19.6 98.4 19.6C81.5 19.6 61.4 31.3 61.1 40.5C72.7 34.9 85.7 32.8 98.4 34.3Z" fill="#FBC9B4"/>
<path d="M159.1 111.2C167.2 109.6 173.2 89.6 167.1 69.2C161 48.8 142.3 38.1 135.7 40.2C144.5 49.6 150.5 61.3 153 73.8C158.6 85.4 160.6 98.4 159.1 111.2Z" fill="#F1DDA6"/>
<path d="M56.4 150.2C54.5 148.1 52.6 145.9 50.9 143.5C43.8 133.7 39.6 122.7 38.2 111.5C32.6 101.5 29.4 90 29.4 77.7C29.4 74.9 29.6 72.2 29.9 69.5C23.4 71.3 15.6 97.3 22.7 116.5C29.8 135.7 50.3 151.3 56.4 150.2Z" fill="#978BA4"/>
<path d="M141.2 150C138.6 151.2 135.9 152.3 133.2 153.2C121.7 156.9 109.9 157.5 98.8 155.4C87.6 157.6 75.6 157.1 64 153.3C61.4 152.4 58.8 151.4 56.4 150.3C59.4 159.7 74.9 171.7 98.9 171.7C122.9 171.7 136.8 159.8 141.2 150Z" fill="#56C3C1"/>
<path d="M167.2 69.2C167.6 72 167.7 74.9 167.7 77.8C167.7 89.9 164.6 101.3 159.1 111.2C157.8 122.6 153.6 133.8 146.4 143.7C144.8 145.9 143 148 141.2 150C152.3 150.7 168.7 138.5 174.7 116.2C180.7 93.9 173.2 71.9 167.2 69.2Z" fill="#81C88E"/>
<path d="M29.9 69.6C31.3 67.1 32.8 64.7 34.5 62.3C41.6 52.5 50.8 45.1 61 40.3C68.8 31.9 78.7 25.3 90.4 21.5C93 20.6 95.7 20 98.3 19.4C88.9 14.7 66 17.5 51.3 27.1C36.6 36.7 27.2 60.6 29.9 69.6Z" fill="#F49398"/>
<path d="M98.4 19.5C101.2 20 104 20.8 106.8 21.7C118.3 25.4 128.2 31.9 135.9 40.2C146.3 45 155.6 52.4 162.9 62.3C164.5 64.5 166 66.8 167.3 69.2C171.5 61.1 158.7 36.9 145.5 26.9C132.3 16.9 108.2 15.1 98.4 19.5Z" fill="#F9BD89"/>
<path d="M29.9 69.6C31.9 52.9 39.8 38.1 51.4 27.2C36.8 35.4 25.2 48.9 19.6 66.1C14 83.4 15.6 101.4 22.7 116.7C19.5 101 21.8 84.3 29.9 69.6Z" fill="#835677"/>
<path d="M56.4 150.2C41.1 143.2 29.4 131.1 22.7 116.6C26 133 35.2 148.3 49.8 158.9C64.5 169.6 82.1 173.6 98.9 171.6C83 169.8 67.8 162.5 56.4 150.2Z" fill="#51797C"/>
<path d="M141.2 150C129.8 162.3 114.7 169.7 98.9 171.7C115.5 173.6 132.9 169.6 147.5 159C162.2 148.3 171.5 132.8 174.7 116.3C168 130.7 156.4 142.8 141.2 150Z" fill="#489789"/>
<path d="M167.2 69.2C175.4 83.8 177.8 100.5 174.7 116.2C181.7 101 183.2 83.2 177.6 66C172 48.7 160.1 35.1 145.4 26.9C157.1 37.7 165.1 52.5 167.2 69.2Z" fill="#6E985F"/>
<path d="M98.4 19.5C114.9 16.2 131.4 19.1 145.4 26.9C133 15.6 116.6 8.60001 98.6 8.60001C80.4 8.60001 63.8 15.6 51.5 27.2C65.3 19.4 81.9 16.3 98.4 19.5Z" fill="#F37F64"/>
</g>
</g>
<defs>
<filter id="filter0_d" x="0.225769" y="2.60001" width="196.792" height="195.556" filterUnits="userSpaceOnUse" color-interpolation-filters="sRGB">
<feFlood flood-opacity="0" result="BackgroundImageFix"/>
<feColorMatrix in="SourceAlpha" type="matrix" values="0 0 0 0 0 0 0 0 0 0 0 0 0 0 0 0 0 0 127 0"/>
<feOffset dy="10"/>
<feGaussianBlur stdDeviation="8"/>
<feColorMatrix type="matrix" values="0 0 0 0 0 0 0 0 0 0 0 0 0 0 0 0 0 0 0.1 0"/>
<feBlend mode="normal" in2="BackgroundImageFix" result="effect1_dropShadow"/>
<feBlend mode="normal" in="SourceGraphic" in2="effect1_dropShadow" result="shape"/>
</filter>
<clipPath id="clip0">
<rect width="197" height="195" fill="white"/>
</clipPath>
</defs>
</svg>
