<?xml version="1.0" encoding="UTF-8"?>
<svg width="155px" height="34px" viewBox="0 0 155 34" version="1.1" xmlns="http://www.w3.org/2000/svg" xmlns:xlink="http://www.w3.org/1999/xlink">
    <!-- Generator: sketchtool 51.3 (57544) - http://www.bohemiancoding.com/sketch -->
    <title>F1E3F66A-9A14-4A13-AB27-851D0C4449E7@2x</title>
    <desc>Created with sketchtool.</desc>
    <defs></defs>
    <g id="Selected" stroke="none" stroke-width="1" fill="none" fill-rule="evenodd">
        <g id="Logo" transform="translate(-160.000000, -436.000000)" fill="#2D3142">
            <g id="Group-2" transform="translate(160.000000, 436.000000)">
                <path d="M59.3434304,28.584 C57.4172072,28.584 55.7692409,28.2960029 54.3994822,27.72 C53.0297235,27.1439971 51.9917187,26.3866714 51.2854369,25.448 C50.579155,24.5093286 50.2046173,23.4853389 50.1618123,22.376 C50.1618123,22.2053325 50.2260188,22.0506674 50.3544337,21.912 C50.4828485,21.7733326 50.6433647,21.704 50.8359871,21.704 L53.757411,21.704 C53.9928383,21.704 54.1854577,21.7573328 54.3352751,21.864 C54.4850924,21.9706672 54.6242065,22.119999 54.7526214,22.312 C54.9666462,23.037337 55.4535453,23.6453309 56.2133333,24.136 C56.9731214,24.6266691 58.0164766,24.872 59.3434304,24.872 C60.841604,24.872 61.9705679,24.6213358 62.730356,24.12 C63.490144,23.6186642 63.8700324,22.930671 63.8700324,22.056 C63.8700324,21.4799971 63.6774129,21.0000019 63.2921683,20.616 C62.9069236,20.2319981 62.3237148,19.8960014 61.5425243,19.608 C60.7613337,19.3199986 59.6002666,18.9733354 58.059288,18.568 C55.5337954,17.9706637 53.6825086,17.1813382 52.5053722,16.2 C51.3282358,15.2186618 50.7396764,13.8106758 50.7396764,11.976 C50.7396764,10.7386605 51.0821109,9.63467152 51.7669903,8.664 C52.4518697,7.69332848 53.4310184,6.93066944 54.704466,6.376 C55.9779136,5.82133056 57.4600131,5.544 59.1508091,5.544 C60.9272149,5.544 62.4628198,5.85333024 63.7576699,6.472 C65.05252,7.09066976 66.0370193,7.86399536 66.7111974,8.792 C67.3853755,9.72000464 67.7438617,10.6426621 67.7866667,11.56 C67.7866667,11.7306675 67.7224602,11.8853326 67.5940453,12.024 C67.4656304,12.1626674 67.3051142,12.232 67.1124919,12.232 L64.0626537,12.232 C63.5917992,12.232 63.2707668,12.0400019 63.0995469,11.656 C62.9925345,10.9733299 62.5751924,10.402669 61.8475081,9.944 C61.1198238,9.48533104 60.2209331,9.256 59.1508091,9.256 C57.9736726,9.256 57.0480293,9.47999776 56.3738511,9.928 C55.699673,10.3760022 55.362589,11.0266624 55.362589,11.88 C55.362589,12.4560029 55.5338063,12.9359981 55.876246,13.32 C56.2186856,13.7040019 56.7537396,14.0399986 57.4814239,14.328 C58.2091083,14.6160014 59.2685152,14.9413315 60.6596764,15.304 C62.5644971,15.7306688 64.0786999,16.210664 65.2023301,16.744 C66.3259603,17.277336 67.155294,17.9493293 67.690356,18.76 C68.225418,19.5706707 68.492945,20.605327 68.492945,21.864 C68.492945,23.2506736 68.1130567,24.4506616 67.3532686,25.464 C66.5934806,26.4773384 65.5233726,27.250664 64.1429126,27.784 C62.7624526,28.317336 61.1626412,28.584 59.3434304,28.584 Z M76.3262136,28.264 C75.7911516,28.264 75.438016,27.997336 75.2667961,27.464 L70.6759871,12.616 C70.6545846,12.5519997 70.6438835,12.4560006 70.6438835,12.328 C70.6438835,12.135999 70.70809,11.9706674 70.8365049,11.832 C70.9649197,11.6933326 71.1254359,11.624 71.3180583,11.624 L73.7579288,11.624 C73.9719536,11.624 74.1592225,11.6879994 74.3197411,11.816 C74.4802597,11.9440006 74.58192,12.0826659 74.6247249,12.232 L77.7387702,22.76 L81.0454369,12.328 C81.1096443,12.135999 81.2220057,11.9706674 81.3825243,11.832 C81.5430429,11.6933326 81.7517139,11.624 82.0085437,11.624 L83.6458252,11.624 C83.902655,11.624 84.1113261,11.6933326 84.2718447,11.832 C84.4323633,11.9706674 84.5340235,12.135999 84.5768285,12.328 L87.9155987,22.76 L91.029644,12.232 C91.072449,12.0826659 91.1687587,11.9440006 91.3185761,11.816 C91.4683934,11.6879994 91.6610128,11.624 91.8964401,11.624 L94.3042071,11.624 C94.4968294,11.624 94.6626962,11.6933326 94.8018123,11.832 C94.9409284,11.9706674 95.0104854,12.135999 95.0104854,12.328 L94.9462783,12.616 L90.3554693,27.464 C90.2698593,27.7200013 90.1467969,27.9173326 89.9862783,28.056 C89.8257597,28.1946674 89.6063876,28.264 89.3281553,28.264 L87.2093204,28.264 C86.6528559,28.264 86.2997203,27.997336 86.1499029,27.464 L82.8432362,17.416 L79.504466,27.464 C79.3332462,27.997336 78.9694095,28.264 78.412945,28.264 L76.3262136,28.264 Z M98.7666019,8.904 C98.5525771,8.904 98.3706588,8.82933408 98.2208414,8.68 C98.0710241,8.53066592 97.9961165,8.3493344 97.9961165,8.136 L97.9961165,5.8 C97.9961165,5.56533216 98.0710241,5.37333408 98.2208414,5.224 C98.3706588,5.07466592 98.5525771,5 98.7666019,5 L101.720129,5 C101.955557,5 102.148176,5.07466592 102.297994,5.224 C102.447811,5.37333408 102.522718,5.56533216 102.522718,5.8 L102.522718,8.136 C102.522718,8.3493344 102.44246,8.53066592 102.281942,8.68 C102.121423,8.82933408 101.934154,8.904 101.720129,8.904 L98.7666019,8.904 Z M98.8950162,28.264 C98.6809914,28.264 98.499073,28.1893341 98.3492557,28.04 C98.1994383,27.8906659 98.1245307,27.7093344 98.1245307,27.496 L98.1245307,12.392 C98.1245307,12.1573322 98.1994383,11.9706674 98.3492557,11.832 C98.499073,11.6933326 98.6809914,11.624 98.8950162,11.624 L101.623819,11.624 C101.837844,11.624 102.019762,11.6986659 102.169579,11.848 C102.319397,11.9973341 102.394304,12.1786656 102.394304,12.392 L102.394304,27.496 C102.394304,27.7093344 102.319397,27.8906659 102.169579,28.04 C102.019762,28.1893341 101.837844,28.264 101.623819,28.264 L98.8950162,28.264 Z M114.208414,28.264 C112.260789,28.264 110.794741,27.7573384 109.810227,26.744 C108.825712,25.7306616 108.333463,24.2426765 108.333463,22.28 L108.333463,15.048 L105.797282,15.048 C105.583257,15.048 105.401338,14.9733341 105.251521,14.824 C105.101704,14.6746659 105.026796,14.4933344 105.026796,14.28 L105.026796,12.392 C105.026796,12.1786656 105.101704,11.9973341 105.251521,11.848 C105.401338,11.6986659 105.583257,11.624 105.797282,11.624 L108.333463,11.624 L108.333463,6.312 C108.333463,6.07733216 108.40837,5.89066736 108.558188,5.752 C108.708005,5.61333264 108.889923,5.544 109.103948,5.544 L111.768544,5.544 C112.003971,5.544 112.19124,5.61333264 112.330356,5.752 C112.469472,5.89066736 112.539029,6.07733216 112.539029,6.312 L112.539029,11.624 L116.551974,11.624 C116.765999,11.624 116.947917,11.6986659 117.097735,11.848 C117.247552,11.9973341 117.32246,12.1786656 117.32246,12.392 L117.32246,14.28 C117.32246,14.4933344 117.247552,14.6746659 117.097735,14.824 C116.947917,14.9733341 116.765999,15.048 116.551974,15.048 L112.539029,15.048 L112.539029,21.928 C112.539029,22.8453379 112.699545,23.5386643 113.020583,24.008 C113.34162,24.4773357 113.865973,24.712 114.593657,24.712 L116.840906,24.712 C117.076333,24.712 117.263602,24.7813326 117.402718,24.92 C117.541835,25.0586674 117.611392,25.2453322 117.611392,25.48 L117.611392,27.496 C117.611392,27.7093344 117.541835,27.8906659 117.402718,28.04 C117.263602,28.1893341 117.076333,28.264 116.840906,28.264 L114.208414,28.264 Z M127.691909,28.584 C125.337637,28.584 123.459597,27.9333398 122.057735,26.632 C120.655872,25.3306602 119.912147,23.5280115 119.826537,21.224 L119.794434,19.944 L119.826537,18.664 C119.912147,16.3599885 120.655872,14.5573398 122.057735,13.256 C123.459597,11.9546602 125.337637,11.304 127.691909,11.304 C129.382705,11.304 130.811299,11.6026637 131.977735,12.2 C133.14417,12.7973363 134.010957,13.5279957 134.578123,14.392 C135.145289,15.2560043 135.450269,16.0826627 135.493074,16.872 C135.514477,17.0853344 135.44492,17.2666659 135.284401,17.416 C135.123883,17.5653341 134.936614,17.64 134.722589,17.64 L131.865372,17.64 C131.629945,17.64 131.458728,17.5920005 131.351715,17.496 C131.244703,17.3999995 131.137692,17.2240013 131.03068,16.968 C130.709642,16.1573293 130.28695,15.5706685 129.762589,15.208 C129.238228,14.8453315 128.569411,14.664 127.756117,14.664 C126.66459,14.664 125.813854,15.0053299 125.203883,15.688 C124.593913,16.3706701 124.26753,17.415993 124.224725,18.824 L124.192621,20.008 L124.224725,21.064 C124.35314,23.8373472 125.530259,25.224 127.756117,25.224 C128.590813,25.224 129.264981,25.0480018 129.778641,24.696 C130.2923,24.3439982 130.709642,23.7520042 131.03068,22.92 C131.11629,22.6853322 131.21795,22.5146672 131.335663,22.408 C131.453377,22.3013328 131.629945,22.248 131.865372,22.248 L134.722589,22.248 C134.936614,22.248 135.123883,22.3226659 135.284401,22.472 C135.44492,22.6213341 135.514477,22.8026656 135.493074,23.016 C135.450269,23.7626704 135.150639,24.5679957 134.594175,25.432 C134.03771,26.2960043 133.181624,27.0373302 132.02589,27.656 C130.870156,28.2746698 129.42551,28.584 127.691909,28.584 Z M139.634434,28.264 C139.420409,28.264 139.238491,28.1893341 139.088673,28.04 C138.938856,27.8906659 138.863948,27.7093344 138.863948,27.496 L138.863948,6.312 C138.863948,6.07733216 138.938856,5.89066736 139.088673,5.752 C139.238491,5.61333264 139.420409,5.544 139.634434,5.544 L142.555858,5.544 C142.791285,5.544 142.978554,5.61333264 143.11767,5.752 C143.256786,5.89066736 143.326343,6.07733216 143.326343,6.312 L143.326343,13.608 C144.610492,12.0719923 146.333366,11.304 148.495016,11.304 C150.464044,11.304 152.037103,11.9493269 153.214239,13.24 C154.391376,14.5306731 154.979935,16.2853222 154.979935,18.504 L154.979935,27.496 C154.979935,27.7093344 154.910378,27.8906659 154.771262,28.04 C154.632146,28.1893341 154.444877,28.264 154.20945,28.264 L151.288026,28.264 C151.052599,28.264 150.859979,28.1893341 150.710162,28.04 C150.560344,27.8906659 150.485437,27.7093344 150.485437,27.496 L150.485437,18.696 C150.485437,17.4586605 150.180456,16.4933368 149.570485,15.8 C148.960515,15.1066632 148.088377,14.76 146.954045,14.76 C145.862519,14.76 144.98503,15.1119965 144.321553,15.816 C143.658077,16.5200035 143.326343,17.4799939 143.326343,18.696 L143.326343,27.496 C143.326343,27.7093344 143.256786,27.8906659 143.11767,28.04 C142.978554,28.1893341 142.791285,28.264 142.555858,28.264 L139.634434,28.264 Z" id="Switch-Copy-8"></path>
                <g id="Group" fill-rule="nonzero">
                    <path d="M0,5 C0,2.23857625 2.24582083,0 5.01618123,0 C7.78654163,0 10.0323625,2.23857625 10.0323625,5 L10.0323625,29 C10.0323625,31.7614237 7.78654163,34 5.01618123,34 C2.24582083,34 0,31.7614237 0,29 L0,5 Z" id="Line-Copy-7" fill-opacity="0.25"></path>
                    <ellipse id="Oval-2-Copy-7" cx="5.01618123" cy="5" rx="5.01618123" ry="5"></ellipse>
                    <path d="M20.0647249,5 C20.0647249,2.23857625 22.3105458,0 25.0809061,0 C27.8512665,0 30.0970874,2.23857625 30.0970874,5 L30.0970874,28.75 C30.0970874,31.5114237 27.8512665,33.75 25.0809061,33.75 C22.3105458,33.75 20.0647249,31.5114237 20.0647249,28.75 L20.0647249,5 Z" id="Line-Copy-9" fill-opacity="0.25"></path>
                    <ellipse id="Oval-2-Copy-8" cx="25.0809061" cy="29" rx="5.01618123" ry="5"></ellipse>
                </g>
            </g>
        </g>
    </g>
</svg>